<svg width="24" height="24" viewBox="0 0 24 24" fill="none" xmlns="http://www.w3.org/2000/svg">
  <path d="M12 15C13.6569 15 15 13.6569 15 12C15 10.3431 13.6569 9 12 9C10.3431 9 9 10.3431 9 12C9 13.6569 10.3431 15 12 15Z" 
        stroke="white" stroke-width="2" stroke-linecap="round" stroke-linejoin="round"/>
  <path d="M19.4 15C19.2655 15.2856 19.2655 15.7144 19.4 16C19.5345 16.2856 19.7345 16.7144 19.6 17L19.4 15ZM19.6 17C19.4655 17.2856 19.2655 17.7144 19.4 18C19.5345 18.2856 19.7345 18.7144 19.6 19L19.6 17ZM19.6 19C19.4655 19.2856 19.2655 19.7144 19.4 20C19.5345 20.2856 19.7345 20.7144 19.6 21L19.6 19ZM19.6 21C19.4655 21.2856 19.2655 21.7144 19.4 22C19.5345 22.2856 19.7345 22.7144 19.6 23L19.6 21ZM4.6 15L4.4 17L4.6 15ZM4.4 17L4.6 19L4.4 17ZM4.6 19L4.4 21L4.6 19ZM4.4 21L4.6 23L4.4 21ZM12 2V4M16.95 4.55L15.535 5.965M20 12H22M16.95 19.45L15.535 18.035M12 20V22" 
        stroke="white" stroke-width="2" stroke-linecap="round" stroke-linejoin="round"/>
</svg>